<svg height="256" viewBox="0 0 67.733 67.733" width="256" xmlns="http://www.w3.org/2000/svg">
    <path d="m60.914 122.86c-1.7297-.54705-2.5778-2.2268-1.7529-3.4721.41363-.62446 1.4301-1.3862 1.8497-1.3862.12711 0 .03151.59444-.25234 1.5688-.2926 1.0045-.35241 1.68-.14873 1.68.05255 0 .23763-.55395.4113-1.231.42023-1.6383.49141-1.657.49992-.13165.0073 1.3042.06438 1.6728.24208 1.563.17734-.1096.12567-2.583-.06385-3.0566-.14988-.37459-.15723-.99548-.08258-6.9745.04507-3.6098.0712-7.2044.05808-7.9878-.02387-1.4245-.02387-1.4245.27661-1.4245.439 0 .4145-.44845.4545 8.3166.0401 8.7853.10222 10.876.32311 10.876.08422 0 .13595-.12137.13845-.32488.004-.32489.004-.32489.17028-.025.23311.42043.28176.11313.0863-.54505-.20709-.69734-.30862-1.6627-.18304-1.7403.11029-.0682.29089.27563.77852 1.482.33411.82656.54343 1.061.54343.60852 0-.37748-.23887-.89747-.81857-1.7819-.71219-1.0866-.54486-1.1426.69187-.23176 2.6605 1.9595.12632 5.2769-3.2221 4.2179zm-.75635-3.1689c.17602-.55525.30059-1.029.27683-1.0528-.14106-.14105-.77004 1.3015-.77004 1.7661 0 .54955.17149.30152.49321-.71335zm-5.8736 2.0063c-2.8694-.59215-3.5604-3.3278-1.1455-4.5348.85162-.42566 1.2304-.36494.75306.12072-.45111.45893-1.0077 1.3725-1.0465 1.7179-.05821.5175.24248.22331.76186-.74542.79455-1.482.98987-1.3056.39601.35766-.25295.70843-.30843 1.2282-.12456 1.1669.1636-.0545.66353-1.4837.90198-2.5785.11376-.52231.37935-1.5237.59021-2.2254.65268-2.1719 1.6424-6.2813 2.0401-8.4708.55712-3.0672 1.2862-5.1495 1.7597-5.0257.26803.0701.24924.29252-.1421 1.6821-.18499.65687-.49782 1.9141-.69518 2.7938-.62841 2.8011-1.0531 4.7789-1.1699 5.448-.06235.35737-.2637 1.257-.44745 1.9993-.18374.74224-.47263 1.9337-.64197 2.6477-.22252.93818-.3878 1.4094-.59606 1.6994-.31473.43825-.71149 1.5945-.71149 2.0734 0 .54953.26584.1298.65224-1.0298.20016-.60069.38957-1.0922.42092-1.0922.06935 0-.04736 2.0588-.13459 2.3741-.10067.36394.15416.26578.31607-.12174.09211-.22045.14485-.6936.14485-1.2995 0-1.0093.03981-1.0862.37666-.72766 1.7133 1.8237.23862 4.2858-2.2584 3.7705zm14.177.0154c-1.7136-.56187-2.1862-2.1468-1.0437-3.5003.35068-.41546.47082-.19274.34461.63884-.04041.26631-.03832.60018.0047.74192.06671.22006.0811.19198.09848-.19212.02037-.44983.02037-.44983.10246.0403.07879.47036.32143.86548.45156.73535.03415-.0341.01273-.29236-.0476-.57376-.06035-.2814-.10915-.79057-.10844-1.1315.0016-.65248-.12923-1.3488-.62242-3.3189-1.0724-4.2841-1.3698-5.7095-1.7311-8.297-.17954-1.286-.4092-2.2757-.89452-3.8549-.41051-1.3358-.42168-1.4575-.14196-1.5463.45608-.14476 1.6236 2.9972 1.7367 4.6738.12887 1.9096 1.0094 5.8309 2.0713 9.2244.22366.71474.46797 1.5906.54292 1.9465.16134.76601.91303 2.402 1.1037 2.402.20116 0 .16631-.17936-.22198-1.1423-.67144-1.6651.17923-1.1637.96277.56749.14646.3236.29225.35935.29225.0716 0-.29388-.41841-1.0753-.90619-1.6924-.50155-.6345-.26964-.6593.88524-.0947 2.6961 1.3181.05563 5.2641-2.8787 4.302zm1.0003-1.8698c0-.47147-.82026-2.254-.96884-2.1054-.03669.0367.61927 2.1021.71877 2.2631.1153.18656.25007.10161.25007-.15763zm1.9039-1.8328c-.06137-.11467-.15602-.20849-.21033-.20849s-.02416.11386.06704.25303c.19384.29584.30669.26076.14329-.0445zm-23.846.6557c-2.309-.59407-3.4281-3.165-1.9565-4.4944.60577-.54728 2.4771-1.0633 2.5138-.69319.0041.0412.02582.1731.04831.29303.02763.14737-.0963.38651-.38229.7377-1.0078 1.2376-1.3809 1.8932-1.0774 1.8932.05251 0 .37466-.37112.71589-.82471.34123-.45358.74818-.95381.90433-1.1116.15615-.1578.64674-.85505 1.0902-1.5494s1.2142-1.8923 1.7127-2.662c1.9556-3.0194 2.9072-4.6401 2.8636-4.8764-.12926-.69916 2.3788-5.2895 2.8632-5.2402.43639.0444.28894.44921-1.0997 3.0192-.41591.76973-.85352 1.6244-.97246 1.8993-.48029 1.1101-2.0195 4.0303-2.7288 5.1773-1.7911 2.8961-2.1575 3.9202-1.8362 5.1324.65631 2.4761-.46255 3.8649-2.6585 3.2999zm2.0454-1.8638c.24393-.47569.33728-.95754.22453-1.159-.076-.1358-.10553-.10266-.15806.17736-.03553.18939-.21806.58773-.40561.88519s-.31996.57488-.29425.61649c.08462.13691.45059-.16356.63339-.52003zm-.47504-.44012c.20678-.40462.69627-1.875.6422-1.929-.14091-.1409-1.3628 2.1746-1.3628 2.5825 0 .20461.5258-.27214.72065-.65342zm-1.0085.0153c.17317-.34363.46621-.86182.65121-1.1515.38981-.61047.39318-.62343.16142-.62104-.38503.004-1.3154 1.5326-1.3222 2.1724-.0041.39277.18482.24448.50953-.39985zm-1.3196-1.4002c.36177-.34404.81521-.74678 1.0076-.89498.29036-.22363.3156-.27026.14839-.27416-.44366-.0103-2.0477 1.2556-2.0477 1.616 0 .30615.211.2004.89167-.44691zm28.254 3.6813c-1.211-.45019-1.5772-1.3911-1.1951-3.0708.1978-.86964.29683-.78978.43851.3536.1022.82474.34264 1.5524.47066 1.4244.03022-.0302-.04361-.44139-.16407-.91369-.29672-1.1633-.21476-1.255.26766-.29947.45986.91085.77174 1.3368.89144 1.2175.04527-.0451-.02019-.24755-.1454-.44984-.12524-.20229-.38577-.70181-.57896-1.11-.19319-.40822-.47533-.90304-.62698-1.0996-.15164-.19657-.52846-.87471-.83736-1.507-.3089-.63227-.93194-1.7569-1.3845-2.4991-.45259-.74224-1.1361-1.9118-1.5189-2.5991-.38279-.68725-.75783-1.3383-.83341-1.4467-.07558-.10845-.13742-.27714-.13742-.37487 0-.0977-.04764-.17768-.10586-.17768-.05823 0-.07799-.0451-.04392-.10024.27053-.43772 1.8423 1.7025 4.3025 5.8586.71791 1.2128 1.0103 1.6103 2.5538 3.4726 1.3571 1.6374 1.7618 1.5399.47164-.11369-1.0958-1.4044-1.1483-1.763-.25563-1.745 2.5528.0517 3.5398 2.5189 1.6971 4.2425-.98925.92533-2.2924 1.2994-3.2658.93752zm1.6436-1.8528c0-.12936-.97658-1.5464-1.2295-1.784-.45161-.42426-.55106-.0979-.15196.49863.70665 1.0563 1.3814 1.6841 1.3814 1.2853zm1.2475-1.6928c-.37936-.49745-.91349-.93684-1.5096-1.2418-.21361-.1093.0072.16741.69975.87663 1.0444 1.0697 1.5057 1.2777.80986.36521zm.16203-.54787c-.16418-.19782-.90513-.69966-.95678-.64801-.05017.0502.85296.76313.98402.77682.04797.005.0357-.053-.02724-.12881zm-12.588 3.1054c-.26007-.27683-.28221-.73905-.05442-1.1359.17366-.30259.20782.0403-.81989-8.2293-.20852-1.6779-.36622-2.5083-.8549-4.5017-.42692-1.7415-.43804-1.996-.08716-1.996.27912 0 .50143.54164.93146 2.2694.34397 1.382.47374 2.1631 1.1187 6.7339.19059 1.3506.50704 3.2806.70321 4.2887.39413 2.0256.38232 2.2198-.15841 2.6048-.35884.25552-.51296.24879-.77864-.034zm-7.8223-.26077c-.37852-.37852-.37632-.52568.04783-3.2066.18702-1.1821.37013-2.3966.4069-2.699.43581-3.5834 1.7827-9.7965 2.1238-9.7965.50966 0 .50579.36515-.02339 2.2061-.36056 1.2544-.86211 4.2428-1.3997 8.3401-.18756 1.4295-.3897 2.857-.44919 3.1722-.10192.54005-.09346.59481.14646.94787.58506.861-.14302 1.7454-.85268 1.0357zm6.3581-.30179c-.45318-.0866-.51812-.34689-.59468-2.3833-.03869-1.029-.13619-2.7256-.21667-3.7702-.21148-2.7449-.30158-6.3477-.15875-6.3477.46898 0 .5879.94377 1.1651 9.2467.24569 3.5342.25726 3.3411-.195 3.2546zm-4.451-.33068c.000794-1.6542.43599-7.4118.70072-9.2717.10565-.74224.22184-1.6485.2582-2.014.0735-.73875.09129-.77916.42586-.96725.23531-.13229.23531-.13229.17877.34987-.0311.26519-.08462 1.067-.11894 1.7817-.03431.71474-.12478 1.9043-.20103 2.6436-.07625.7392-.19306 2.734-.25958 4.4328-.12094 3.0888-.12094 3.0888-.35911 3.1794-.41486.15773-.62503.11254-.6249-.13437zm12.141-1.0832c-.13684-.26463-.14175-.37794-.03446-.79654.12238-.47748.11622-.50698-.28516-1.3659-.22563-.48282-.72525-1.5976-1.1103-2.4773-.38502-.87968-.97748-2.2067-1.3166-2.9489-.3391-.74223-.7706-1.7435-.9589-2.2251-.18829-.48159-.62666-1.4488-.97416-2.1492-1.109-2.2355-1.2498-2.7392-.7841-2.8055.26302-.0375 1.9002 3.1788 2.3176 4.5528.11988.3947.88378 2.0582 1.6976 3.6966 1.5583 3.1376 2.6026 5.464 2.6026 5.7984 0 .88594-.80776 1.3904-1.154.72075zm-20.015.0361c-.91274-.32702-.38251-2.1513 1.7803-6.1253.28427-.52231.71884-1.3995.96571-1.9493s.83304-1.7869 1.3026-2.749c.46956-.96215 1.0909-2.2502 1.3808-2.8624.57536-1.215.64384-1.2976.94319-1.1374.18653.0998.19125.1325.06201.42947-.87533 2.0115-1.363 3.068-2.0403 4.42-.44066.87968-1.0482 2.1617-1.3502 2.849-.30194.68726-.96438 2.1042-1.4721 3.1489-.81828 1.6836-.93194 1.9844-1.0009 2.649-.11006 1.0604-.27108 1.4345-.57121 1.327zm1.5085-.3584c.10646-.77671 2.4769-6.9572 3.1319-8.166.94563-1.745.87621-1.4715-1.4458 5.698-.79553 2.4563-1.0282 2.899-1.524 2.899-.20322 0-.2164-.035-.16214-.4309zm16.803.18116c-.43658-.6663-2.6111-7.4248-2.7821-8.6471-.11076-.79151.88375 1.0692 1.4738 2.7574.19054.54516.41623 1.1711.50154 1.3911.80151 2.0662 1.5726 4.2977 1.547 4.4773-.04874.34269-.52078.35625-.74027.0213zm-28.301-1.6358c-2.7719-.95777-3.8578-4.8305-1.6794-5.989.30016-.15963 3.2215-.34866 3.3044-.21382.09194.14954-.28722.49112-.54515.49112-.15309 0-.49916.067-.76905.14887-.2699.0819-.65269.14935-.85067.14995-.6588.002-1.1895.3358-1.1895.74822 0 .0209.25601-.11618.56891-.3046.52006-.31316.73062-.40166.73062-.30708 0 .0195-.25866.21705-.57479.43895-.6594.46285-.96059.7673-.9098.91966.01946.0584.39519-.14891.83496-.46063.80639-.5716 2.2111-1.3047 2.3101-1.2056.02944.0294-.36587.36812-.87846.75263-1.17.87767-1.9646 1.6757-1.8163 1.8241.17838.17838 3.1237-2.2982 3.3324-2.802.06506-.15708.35055-.48038.63443-.71846s1.0559-.95252 1.7157-1.5876c1.5348-1.4775 2.8901-2.692 4.3984-3.9415.65976-.54658 1.3795-1.1607 1.5994-1.3646.21992-.20398.53481-.4748.69975-.60183s.35866-.28748.43048-.35654c.66052-.63519 1.643-1.251 1.8619-1.167.23599.09055-.0118.37044-1.1928 1.3472-.5498.45476-1.517 1.3077-2.1492 1.8953s-1.5544 1.4177-2.0493 1.8445c-.49482.42678-1.5304 1.3886-2.3013 2.1373s-1.7298 1.6537-2.1308 2.0111c-1.0396.92641-1.6302 1.6875-2.014 2.5955-.18393.4351-.5743 1.092-.86767 1.4602-.50095.62861-.64915.9425-.44498.9425.13378 0 .69164-.65008 1.3942-1.6246 1.2395-1.7195 1.2156-1.241-.04419.88359-.54186.91383-.64442 1.191-.41367 1.118.32115-.10156 1.7744-2.6855 1.7744-3.155 0-.15435.36126-.59995 1.1246-1.3872 2.3115-2.3838 3.1414-3.1856 5.5185-5.3314.82224-.74223 1.9468-1.777 2.4991-2.2994 1.7315-1.638 2.2537-1.987 2.2537-1.5064 0 .20192-1.4421 1.6527-3.2965 3.3162-3.0721 2.756-7.2688 7.0382-7.5131 7.6662-.05793.14894-.18772.73104-.28841 1.2936-.37147 2.0753-1.4504 2.8984-3.067 2.3398zm2.2825-1.5139c.15728-.26075.29949-.67988.33896-.99902.07695-.62227-.05162-.59677-.25207.05-.06816.21992-.25936.64044-.42489.93449-.39192.69621-.08124.70958.338.0145zm-1.973-1.4062c.74034-.70079 1.5164-1.8089 1.3483-1.9251-.08823-.061-2.497 2.5359-2.4391 2.6296.1145.18526.22891.11137 1.0908-.70447zm38.517 2.8536c-.64498-.34434-1.019-.945-1.1699-1.8789-.18107-1.1205-.29334-1.476-.65273-2.067-.39878-.65576-5.2648-5.5318-7.1941-7.209-1.9068-1.6576-3.2488-3.0373-3.2488-3.3401 0-.58256.35768-.32876 2.9625 2.1021.76591.71474 2.3132 2.1534 3.4385 3.197 3.9292 3.644 4.8033 4.5772 5.1536 5.502.31821.84009 1.3433 2.4878 1.6498 2.6518.25503.13649.34424-.0634.14915-.33415-.08738-.12128-.34013-.46793-.56166-.77032s-.56404-.86469-.76112-1.2496c-.43105-.84176-.29716-.75214.89607.59978.67373.76333 1.2136 1.2496 1.3875 1.2496.18235 0 .05799-.29799-.29659-.71066-.42756-.4976-1.0617-1.3235-1.7221-2.2428-.8519-1.1858-3.8808-4.1581-5.9479-5.8366-.49482-.40181-1.327-1.1234-1.8493-1.6035-.52231-.48009-1.2847-1.1607-1.6942-1.5124-1.8109-1.5555-2.22-2.034-1.8456-2.1587.13916-.04633 2.2181 1.5556 3.3899 2.612 1.0759.97004 1.9209 1.6911 2.9989 2.5593.43984.3542 1.4818 1.2968 2.3155 2.0946 2.2169 2.1217 2.563 2.2835 4.9103 2.2959 1.1264.006 1.6589.26787 2.0743 1.0202 1.3543 2.4531-1.9987 6.3016-4.3818 5.0293zm-.15368-1.8156c-.16295-.37448-.31801-.77083-.34458-.88079-.02656-.10996-.05352-.007-.0599.22813-.01243.45825.19018 1.0472.46449 1.3503.27854.30778.25415.0243-.06001-.69765zm3.1826-.66352c0-.1533-2.6966-2.9021-2.7725-2.8262-.15533.15532.18059.67813.9519 1.4815 1.1535 1.2014 1.8206 1.6941 1.8206 1.3447zm.59978-1.0269c0-.23758-.45679-.6184-1.5607-1.3012-1.8852-1.166-2.2212-1.2388-.82985-.18001 2.1312 1.6218 2.3906 1.7825 2.3906 1.4812zm-.22911-1.4025c-.35262-.32315-1.0074-.56908-1.8202-.68368-.47173-.0665-.32102.0258.57372.35138.31554.11483.78787.35723 1.0496.53868.56902.39446.7012.25585.19682-.20638zm-8.3681 3.4974c-.08264-.0225-.64494-.79087-1.2496-1.7074-1.5409-2.3359-3.021-4.2768-4.2482-5.571-1.0829-1.142-1.5086-1.771-2.3872-3.5267-.53118-1.0616-.59422-1.3039-.39184-1.5063.23546-.23546.35609-.1049.97442 1.0546 1.0007 1.8766 1.4993 2.57 3.513 4.8855 1.5844 1.8219 4.0964 5.3327 4.2729 5.9717.12601.45635.02641.53865-.48352.39963zm-27.889-.16077c.0048-.64053 4.0511-5.8203 5.4858-7.0225.31932-.26758.13136.10627-.52772 1.0496-.24968.35737-.95655 1.392-1.5708 2.2992-1.2905 1.9058-2.2417 3.2521-2.5251 3.5737-.21841.24787-.86382.32271-.86214.1zm29.594-.26963c-.10706-.10706-.24322-.3882-.30259-.62477-.20547-.81878-.34711-1.0161-2.4517-3.4149-.38486-.43868-.9204-1.0712-1.1901-1.4055-.26968-.33436-.8095-.9453-1.1996-1.3576-1.0931-1.1555-2.436-2.8549-2.3355-2.9554.15267-.15267 2.4384 1.9625 3.8417 3.5552.46023.52232 1.2641 1.4185 1.7864 1.9916 1.5481 1.6986 2.8457 3.3551 2.8457 3.6327 0 .59874-.61592.95725-.99437.5788zm-31.237-.0624c-.15144-.15144-.20589-.39414-.17326-.77232.01336-.15484 1.2534-1.648 3.5817-4.3128 1.4007-1.6031 5.0737-5.0542 5.3792-5.0542.18829 0-1.3227 1.7923-2.6968 3.1988-1.6259 1.6643-2.5681 2.7348-3.9863 4.5289-.42614.53911-.83945 1.005-.91846 1.0353-.0888.0341-.14366.19524-.14366.42204 0 .74439-.6538 1.3427-1.0425.95407zm-9.2038-4.8568c-3.2599-1.6856-2.5401-6.8788.83159-6.0002 1.4535.37871 1.3396.3895 3.3927-.32145 2.2552-.78093 5.0431-1.819 7.4396-2.77.97209-.38578 1.9392-.74817 2.1492-.80532.20999-.05714.95393-.32428 1.6532-.59364 1.28-.49307 1.7087-.58196 1.8334-.38019.15267.24702-1.0688.86932-3.5047 1.7855-.5498.2068-1.1796.45364-1.3995.54854-.21992.0949-.77861.30762-1.2415.4727-.46292.16508-.9405.3649-1.0613.44405-.12079.07914-.93411.38472-1.8074.67906-.87327.29435-2.1726.7916-2.8873 1.105-1.7476.76633-2.0513.85606-3.0989.91556-1.3212.075-3.3258.79386-3.0323 1.0874.02272.0227.708-.18418 1.5228-.45978 2.015-.68151 1.7898-.4199-.66476.77214-.53247.25859-.75938.53739-.43738.53739.07558 0 .67162-.23007 1.3245-.51127 1.7928-.77214 1.8822-.79903 2.0036-.60274.15287.24733.04912.41426-.25747.41426-.29757 0-2.3797 1.1075-2.5832 1.3741-.32064.41985.11262.44515.70673.0413 1.5531-1.0558 2.2489-1.1886.92835-.17721-.89615.6864-1.2602 1.0204-1.2602 1.1563 0 .21171.29498.0941.80288-.32011 1.5727-1.2826 1.6962-1.3403 1.6962-.79227 0 1.7488-1.7084 3.0942-3.0489 2.401zm1.9594-1.175c.40869-.424.76365-.90862.66552-.90862-.01715 0-.34366.31488-.72558.69975-.38191.38485-.63109.69974-.55374.69974.07736 0 .35356-.22089.61379-.49087zm-1.5485-3.8581c.37882-.0803.78733-.1467.90779-.14765.12046-.001.24962-.0512.28702-.11176.1315-.21279-1.8011-.0705-2.0452.15051-.2601.23561-.27226.39253-.0243.31383.10225-.0324.49586-.12467.87469-.20493zm48.522 5.1418c-.6012-.25282-1.0906-1.0205-1.3488-2.1154-.27853-1.1813-.1976-1.2277.68265-.39083.9779.92967 1.7657 1.4327 1.7657 1.1274 0-.0474-.30364-.31336-.67476-.59098-1.6941-1.2673-1.7491-1.6154-.10648-.6734 1.0677.61232 1.481.76857 1.481.5599 0-.05-.46108-.3724-1.0246-.71641-2.2497-1.3733-1.9186-1.5736.65973-.39905.524.23871.6654.25615.66326.0818-.003-.23659-.15039-.34326-.84817-.61339-.91832-.35551-2.0484-.95004-1.8175-.9562.21991-.006 1.9506.4271 2.5422.636.37862.13368.42485.13356.42485-.001 0-.26808-2.6867-1.12-4.3903-1.3921-.24295-.0388-.73778-.19613-1.0996-.3496-.36183-.15347-.92071-.35507-1.242-.448-.32124-.0929-1.2434-.41641-2.0493-.71885-.80585-.30245-1.8925-.69664-2.4148-.876s-1.467-.53909-2.0992-.79942c-.63228-.26033-1.5544-.62064-2.0493-.80068-1.5944-.58016-2.8698-1.2226-2.8283-1.4247.07614-.37099 1.3742-.02286 4.0778 1.0936 1.5483.63936 5.0295 1.8626 7.6473 2.6871.87968.27708 1.9504.63985 2.3794.80614.83513.32375 1.3363.36535 2.2576.18736 2.7896-.53897 3.8956 1.4137 2.4796 4.3781-.6524 1.3658-2.0425 2.14-3.0679 1.7087zm-.34298-1.771c-.48323-.47133-.48323-.47133-.17132-.005.28999.43334.50086.61202.60939.51636.02482-.0219-.1723-.2519-.43807-.51113zm2.4511-3.3608c-.27667-.2945-.75304-.39324-1.467-.30404-.64404.0805-.71736.24053-.11644.25416.23367.005.67226.0666.97465.13615.82711.19031.8637.18512.60874-.0863zm-45.233 4.5554c-.06909-.11178.6695-.80893 1.2893-1.217.67955-.44736.90877-.66104 1.3618-1.2694.61286-.82307.51378-.83103-.99312-.0798-1.5049.75025-1.6709.90302-1.8044 1.6609-.16149.91681-.62258 1.1925-1.1133.66578-.878-.94242.37996-2.0639 3.4487-3.0746 1.9091-.62877 7.0475-3.8069 7.0475-4.359 0-.27355-.69607-.08145-1.3734.37902-.71729.48765-5.1363 2.6585-5.8757 2.8865-.38396.11837-1.1354.39135-1.6699.60662-1.3983.56314-3.0274.82418-2.0271.32481.21992-.10979.89749-.47762 1.5057-.81741s1.5754-.79382 2.1492-1.009c2.0815-.78037 2.8696-1.1077 4.3417-1.8032.82442-.3895 1.6566-.73484 1.8493-.76742.52876-.08939 1.2378-.36552 2.3986-.93411 1.8398-.90117 2.1089-.49342.3258.49365-.99753.55222-1.3239.80035-2.1737 1.6527-.54999.55162-1.3599 1.2463-1.7997 1.5438-1.5966 1.0799-2.8174 2.0542-3.6987 2.952-1.466 1.4935-2.9718 2.5159-3.1886 2.165zm39.387-.19495c-.07917-.1531-.17621-.45674-.21565-.67476-.10358-.57255-.21868-.74535-.60369-.90621-.18825-.0787-.59176-.3026-.89668-.49766-1.5594-.99751-1.8092-.70189-.4694.55553 1.2174 1.1425 1.5048 1.6027.99971 1.6006-.2411-.001-1.5239-1.0534-2.9739-2.4398-.46733-.44681-1.2321-1.0791-1.6994-1.405-2.3199-1.6181-3.0405-2.2274-2.9409-2.4868.07518-.1959.29598-.0965 1.2622.56831.34598.23804.98894.6267 1.4288.86368.43984.23698 1.2271.68347 1.7494.9922 1.2125.71666 1.6757.93065 1.7209.79497.17309-.51926 3.8804 1.5362 3.8736 2.1476-.0092.82133-.92771 1.4813-1.2349.88734zm.41046-3.2295c-.20797-.049-.50036-.15096-.64977-.22665-.14941-.0757-1.0814-.43479-2.071-.798-.98964-.36322-2.8115-1.1166-4.0485-1.6743-1.2371-.55763-2.7326-1.1834-3.3235-1.3905-.93293-.32707-2.0048-.87004-2.6048-1.3195-.59735-.44749.10207-.58651.87519-.17395.31516.16817.94002.44443 1.3886.61389.44856.16946 1.0855.40996 1.4154.53443.32988.12448.93716.38239 1.3495.57315 1.0854.5021 3.8566 1.6186 4.6483 1.8727.75316.24176 2.399 1.0625 3.0185 1.5053.82654.59072.82693.67771.0024.4835zm-44.1-3.1249c-.54424-.54424-.17613-1.0098.86461-1.0936.401-.03227 1.103-.17235 1.5601-.31126.45705-.13892 1.4692-.39346 2.2492-.56566.78001-.1722 2.0705-.53723 2.8677-.81119s1.8543-.62733 2.3492-.78527c.49482-.15795 1.5744-.51531 2.3991-.79415 2.4607-.83198 3.1489-.95268 3.1489-.55232 0 .24174-.37456.41163-2.0774.94224-.89516.27893-2.0198.65684-2.4991.83979-1.2241.46718-5.2914 1.7817-7.0193 2.2685-.79721.22462-1.7869.54747-2.1992.71744-1.0581.43614-1.329.46012-1.6437.14545zm46.385-.0695c-.32601-.15795-1.1807-.42658-1.8993-.59694-.71862-.17036-1.8239-.47143-2.4562-.66904-2.3507-.73466-5.6295-1.8369-6.2779-2.1104-.36829-.15536-1.2994-.47359-2.0691-.70718-1.644-.49891-1.6994-.52404-1.6994-.7709 0-.43819 2.1174.0136 4.229.90236.31805.13387.93897.33548 1.3798.44804.44085.11256 1.0156.29932 1.2771.41503 1.7142.75828 6.7674 2.1058 7.8812 2.1017 1.0573-.0039 1.545.59324.84473 1.0343-.39892.25123-.61156.24299-1.2099-.0469zm-50.328-.75835c-1.6807-.83754-2.2718-3.9058-1.0587-5.4962.61168-.80195 1.7611-1.0208 2.5656-.48844.24927.16494.75017.49497 1.1131.7334 1.3213.86804 1.0616 1.1433-1.1313 1.1991-1.2075.03072-1.5996.07192-1.5996.16802 0 .20516.24783.24816 1.4826.25725.83045.0061 1.0825.0337.87508.09571-.16023.04792-.32403.06691-.364.04221-.03997-.02471-.26874.0397-.50839.14312-.23964.10342-.64705.21792-.90535.25444-.49357.06979-.60243.35561-.13544.35561.22408 0 1.5221-.31025 2.1295-.50899.3153-.10317.44751-.29072.20493-.29072-.07292 0-.08272-.03204-.02499-.08171.12131-.10438.97718-.26678 2.4892-.47232.65706-.08932 1.6219-.27079 2.1441-.40326 1.8694-.47422 3.0061-.57564 6.5576-.58512 3.0934-.0083 4.8704-.16814 4.6226-.41592-.0798-.0798-6.5859-.44811-8.1189-.45961-.93332-.007-1.6097-.04334-1.5031-.08074.82748-.29026-3.614-.64406-4.5472-.36221-.87731.26498-1.5963-.0782-1.2936-.61744.23553-.41963.78869-.74573 1.1437-.67425.16494.03321.92967.12473 1.6994.20337.76972.07865 1.8044.21543 2.2992.30396 1.7214.30798 2.0159.34117 4.8483.54639 2.6641.19303 4.4764.39661 5.2981.59514.19243.0465.47228.11207.62189.14572.43732.09837.6253.75857.21598.75857-.0772 0-.64594.15224-1.2638.3383-2.0661.62216-3.7996.91362-4.1334.69494-.62016-.40634-3.4809-.22009-5.637.367-.57729.15719-1.477.33648-1.9993.39841-.8888.10538-2.764.50689-4.8483 1.0381-.60108.15319-.9096.28034-.92958.38308-.06667.34294.20938.31486 1.9163-.19493 1.2681-.37874 1.4335-.14341.68154.9697-.90015 1.3324-1.8072 1.6883-2.9069 1.1403zm2.1537-1.1018c1.2112-.67138 1.1192-.91799-.1326-.35527-.68132.30627-.89008.44715-.91568.61795-.04176.27857.16554.22663 1.0483-.26267zm.61629-3.3869c-.61118-.33186-3.0275-.64606-2.726-.35446.09491.0918 2.2718.48403 2.744.49443.24991.0055.24991.0055-.018-.13997zm-1.0816-.70132c0-.09638-.68435-.34516-.92146-.33497-.13694.0059-.0083.08189.32167.19013.30239.09918.56105.18474.57479.19013.01375.0054.02499-.015.02499-.04528zm52.031 5.2664c-.86237-.53475-2.0559-2.073-1.7535-2.2599.1158-.07157.50393.11334.50393.24008 0 .30368 1.2433 1.3913 1.7744 1.5521.34926.10577.26485-.08922-.11757-.27158-.43216-.20608-1.3803-.88328-1.3204-.94312.02471-.02471.17282.02117.32913.10191.35262.18219 1.5155.56765 1.7124.56765.32175 0-.11666-.30531-.6666-.46423-2.0802-.60113-1.8664-.96861.27511-.47291.84478.19554 1.0818.13902.55994-.1335-.61018-.31864-2.576-.78939-4.7151-1.1291-1.0554-.1676-2.2605-.41316-2.6781-.5457-1.6813-.53362-5.3561-.87739-7.022-.6569-1.1224.14855-1.611.091-3.0059-.35401-.42328-.13503-.93828-.29149-1.1445-.34769-.70115-.1911-.45963-.79253.31989-.79656.25016-.0011.78384-.08986 1.186-.19682.40212-.10696 1.1444-.22258 1.6494-.25693.50506-.03435 1.6354-.14821 2.512-.25302s1.8458-.19056 2.1538-.19056c.60694 0 4.174-.39842 5.949-.66447 1.5901-.23833 1.8299-.22798 2.1042.09094.53106.6174-.03865 1.0886-1.0011.82812-.60094-.16267-.70367-.1631-1.7208-.0073-2.1953.33627-3.1197.43181-4.7804.49405-.93466.03502-2.3741.12809-3.1988.20678-.82471.07869-2.0729.17199-2.7737.20731-1.2783.06444-1.486.15273-.79581.33828.99599.26777 1.8763.31786 3.5195.20025 2.5634-.18347 5.6165.06431 6.1394.49825.25126.20853 1.1414.42762 2.6831.6604 1.6759.25302 3.0232.56295 2.9154.67066-.0802.0802 1.1785.46874 1.7572.54241.91859.11695.18217-.34093-.80004-.49744-.75709-.12064-.8133-.14366-.51734-.21189.39373-.09077.35394-.15963-.15599-.26991-.23677-.0512.05889-.0653.79861-.03809.95915.03529 1.1746.0176 1.1746-.09632 0-.19414-.18113-.22907-1.5494-.29884-2.3-.11727-2.3087-.12622-1.137-1.1587 1.5473-1.3634 2.3225-1.4125 3.3989-.21533 1.9039 2.1176-.32074 6.9213-2.5617 5.5317zm.34324-4.7189c.29874-.05093.71485-.09259.92467-.09259.45867 0 .50384-.15718.07239-.25194-.49989-.10979-2.3085.2393-2.4533.47352-.05822.0942.36888.05637 1.4562-.129zm.50645-.79251c.18227-.0024.21247-.0266.11157-.09051-.07826-.04956-.26866-.05024-.43842-.0016-.36716.1053-.5217.24678-.17297.15834.13745-.03487.36237-.06468.49982-.06627zm-5.0982 4.0824c-.74223-.1651-1.8443-.4317-2.4491-.59243-.60478-.16074-2.0443-.52217-3.1989-.80317-2.3048-.56096-2.8041-.72607-2.8925-.9566-.04948-.12894.0097-.14376.36715-.09188.23438.034 1.0559.12988 1.8256.21303 1.7294.18682 2.2199.27468 3.5481.63565.57765.15699 1.7697.46014 2.6489.67365 1.6589.40285 1.9883.56815 1.9312.96916-.04321.30362-.22416.2988-1.7805-.0474zm-45.284.05967c0-.52316.43192-.77404 1.708-.99209.5176-.08845 1.4809-.29193 2.1407-.45218 2.3281-.56548 4.4025-.89536 5.0954-.81029.61134.07507-1.6115.8274-3.9958 1.3524-1.1546.25424-2.641.59644-3.3032.76045-1.378.3413-1.6451.3643-1.6451.14167zm31.922-5.3982c-.0952-.24808.07915-.34468 1.1813-.65453 2.3946-.6732 2.9836-.77616 5.0829-.88842 1.5543-.08311 5.2002-.52725 5.4142-.65955.04479-.02769.58804-.0926 1.2072-.14427.61917-.05166 1.2607-.10947 1.4257-.12846.16494-.019.40554.02069.53466.08824.72018.37665-4.3917 1.4481-7.832 1.6417-1.9122.10757-3.7098.33078-5.6478.70132-1.262.24129-1.2901.24219-1.3661.04398zm-18.627-.19621c-.63227-.12894-2.2337-.32674-3.5588-.43956-3.0692-.26132-6.9002-.90814-9.6266-1.6254-.36198-.09523-.40429-.12891-.23882-.19012.1106-.04091.22745-.14308.25967-.22704.03609-.09403.14699-.13778.28881-.11393.12662.0213.86.13333 1.6297.24895.76972.11562 2.4566.38591 3.7487.60066 1.588.26393 2.9322.4225 4.1485.48936 1.4083.07742 1.984.15286 2.649.34715.46733.13653 1.1421.30301 1.4995.36996.84116.15758 1.0194.25294.98072.5247-.04269.29987-.3709.30268-1.7804.01524zm18.537-.95625c-.12695-.20541.20554-.37755 2.0052-1.0381 2.7046-.9927 3.0264-1.1274 3.9486-1.6529 1.0162-.57905 3.4316-1.5481 6.0822-2.4401 1.0635-.35791 2.1376-.76468 2.3867-.90394.69915-.39076 1.3275-.24675 1.3275.30425 0 .25785-.49121.64212-.81993.64143-.18131-.000264-1.6567.44477-3.2786.98921-1.6219.54445-3.4663 1.1568-4.0985 1.3608-1.381.4456-2.2992.90551-2.2992 1.1517 0 .09934-.09677.19587-.22492.22439-.1237.02751-1.1548.37015-2.2913.76138-2.0208.69567-2.601.82319-2.7378.60179zm18.099-.07552c-1.4241-.53768-2.367-1.2406-1.8243-1.3601.80742-.17783 1.3238-.21158 1.9672-.12856.75684.09766.86677.07487.77629-.16092-.05501-.14335-.30452-.19006-1.7092-.31994-.66236-.06124-.77561-.23928-.15458-.243.1402-.000794.29769-.04432.34999-.09661.0523-.0523.42881-.10852.8367-.12495.46926-.01889.75634-.07441.78171-.15114.06888-.20834-.45674-.25954-1.4079-.13712-.50346.06479-1.0874.13926-1.2976.16547-.52532.0655-.37879-.12285.15782-.20286.23338-.0348.62676-.14932.87416-.25448.24741-.10516.71108-.24177 1.0304-.30358.45465-.08801.57369-.14851.54897-.27904-.08323-.43953-1.5041-.1728-4.7282.88758-3.0942 1.0177-8.0269 1.9306-8.347 1.5448-.06844-.08247-.19766-.1528-.28714-.15628-.28905-.01127.24102-.17726 1.4137-.44273.61746-.13978 1.595-.36108 2.1723-.49177 1.353-.30632 3.3831-.87605 4.1485-1.1643.41472-.15617.8578-.23302 1.436-.24906.96311-.02671 1.1448-.14449 2.0397-1.3222 1.6687-2.1959 4.1998-.65937 4.0568 2.4628-.09079 1.9824-1.3364 3.0934-2.8342 2.5279zm.94966-.7197c0-.18139-.62423-.37581-1.4013-.43645-.7479-.05836-.7479-.05836-.39803.1039.75257.34902 1.7994.54249 1.7994.33255zm-1.4995-3.2964c.02751-.03699.25241-.134.49982-.21555.49685-.16377.52661-.22314.28379-.56602-.21106-.29802-.41766-.23795-.98596.28669-.59344.54787-.43445.60748.24734.09274.30805-.23258.58456-.39842.61446-.36852.02988.02988-.14257.18984-.38326.35545-.53349.36705-.80716.66049-.51523.55246.10399-.03848.21157-.10024.23906-.13725zm-53.742 3.91c-1.5552-.70624-1.8613-3.63-.53749-5.1339 1.0771-1.2237 2.5262-.9994 3.6011.55727.25831.37408.59534.81135.74897.9717.3546.37012.15709.48788-.41552.24774-.76765-.32193-2.6357-.57878-2.6357-.36239 0 .2182.89216.5209 2.2492.76313.69579.1242.04458.26396-1.1496.24672-1.3575-.01961-1.2995-.02803-1.2995.18946 0 .21844.3458.31239 1.1498.31239 1.2274 0 .86708.34862-.47853.463-.90286.07674-1.0065.27347-.16364.31062 1.759.07754 1.9366.21807.59483.47066-.86231.16233-1.1627.29996-.88621.40606.21578.08281 1.0262-.11802 1.6312-.40423.5271-.24936 1.1903-.32633 1.2988-.15075.29036.46981-2.9692 1.4479-3.7077 1.1125zm2.7976-4.1322c-.26888-.44944-1.6364-.97989-1.6364-.63475 0 .08466.19059.1857.48231.25568.26527.06364.6139.19979.77472.30256.34653.22143.48251.24885.3794.07651zm16.207 4.1542c-.10996-.02535-.71724-.19575-1.3495-.37864-.63227-.18289-1.3779-.38445-1.657-.4479-.27907-.06346-.67892-.17434-.88855-.24641-.31726-.10907-.4249-.1082-.64219.0052-.67884.35422-3.8949-.23063-9.7077-1.7653-.21839-.05766-.39184-.18397-.46154-.33611-.0912-.19907-.08594-.23386.02871-.18986.07721.02962.22754-.025.33406-.12142.24421-.22101.85382-.15493 1.911.20715 2.3467.80372 7.5521 1.9621 8.0734 1.7967.46408-.14729.08543-.3486-1.4374-.76423-.55047-.15024-2.0355-.63729-3.3-1.0823-2.8938-1.0185-4.4808-1.5057-4.9044-1.5057-.89697 0-1.4684-.67459-.96062-1.1341.34609-.31321.44492-.28608 3.8924 1.0684.75509.29667 1.9127.72995 2.5725.96284 1.9937.70374 3.2719 1.2206 3.7986 1.5361.90362.54121 1.4843.78663 2.649 1.1196 2.1318.60947 2.745.89907 2.5081 1.1846-.07338.08842-.16165.15555-.19615.14917-.0345-.0064-.1527-.03234-.26266-.05771zm16.869-.89658c-.35598-.14364.15412-.51788 1.7744-1.3018 1.7487-.84606 3.5484-1.6883 3.9486-1.848.2749-.10967.88218-.39426 1.3495-.63243 1.5986-.81472 2.8492-1.3689 4.0554-1.7971.6635-.23557 1.3383-.4944 1.4995-.57518.1612-.08077.64902-.27479 1.084-.43114.48562-.17454.96-.43058 1.2289-.66328.25994-.22498.64944-.43811.95842-.52444.28628-.07999.8354-.23068 1.2203-.33486 1.3435-.36368.9707-.65076-.48363-.37248-.86127.16481-1.808.19946-1.7237.06309.02951-.04775.22938-.11493.44414-.14927 1.0112-.1617 2.7461-1.153 2.0381-1.1646-.37567-.0062-2.2774.88471-2.4507 1.148-.21471.32621-2.6518 1.5554-4.8002 2.4211-.59294.23892-2.0099.90367-3.1489 1.4772-1.1389.57354-2.9705 1.4916-4.0701 2.0402-1.0996.54858-2.2787 1.1468-2.6202 1.3295-.78109.41774-1.2075.25124-.66265-.25877.40565-.37974 2.5388-1.5815 3.8045-2.1434.59275-.26313 1.4079-.66649 1.8114-.89637.40353-.22988.75752-.41796.78664-.41796.02913 0 .3131-.15804.63107-.35119.60108-.36514 3.4654-1.6826 4.5962-2.1141.35738-.13636 1.0546-.46276 1.5494-.72534.49482-.26258 1.0346-.54909 1.1996-.63671.16494-.08762.63727-.32017 1.0496-.51679 1.1408-.54396 1.844-.99024 1.8835-1.1954.05428-.28183-.35528-.1405-1.2895.44498-.43545.2729-.82676.49619-.86958.49619s-.25036.11722-.4612.26049c-.43321.29437-.4421.20656-.09216-.91025.98932-3.1574 3.933-2.9875 4.9419.28518.68892 2.2347-.60057 3.8969-2.7635 3.5624-1.0949-.16936-1.5638-.20303-1.5051-.10807.16423.26574-.6237.66082-3.4321 1.7209-1.9266.72726-4.4493 1.8151-6.3638 2.7442-1.6561.80374-4.9932 2.2295-4.9932 2.1333 0-.0041-.05623-.03007-.12496-.05783zm17.494-7.2364c.20617-.05726.37486-.15341.37486-.21366 0-.11633-1.8475-.03484-2.1788.09611-.45037.17801 1.1992.2855 1.8039.11756zm-1.6713-3.5265c.71271-.51321.79568-.83549.1458-.5663-.37038.15341-1.3984 1.1-1.3984 1.2876 0 .15092.20629.03212 1.2526-.72132zm-32.441 10.46c-.08247-.02966-.68975-.29157-1.3495-.58203-.65976-.29046-1.312-.56135-1.4495-.60197-.13745-.04062-1.0371-.43129-1.9993-.86816-3.3799-1.5346-3.6561-1.6544-4.5484-1.9722-3.1384-1.118-5.3306-2.1335-4.7855-2.217.04797-.0073-.13233-.0438-.40067-.08102-.28477-.0395-.8927-.0071-1.4603.07773-1.8345.2743-2.7877-.65832-2.6788-2.6212.182-3.2829 3.7594-4.5907 4.9376-1.8051.55074 1.3022.50323 1.6306-.1854 1.2816-1.4002-.70954-2.4744-1.0735-2.4744-.83841 0 .19574 2.3313 1.4008 2.71 1.4008.07841 0 .30349.10936.50019.24301s.78068.42994 1.2977.65841c.51707.22847 1.5924.72322 2.3896 1.0995.79721.37623 1.9218.89186 2.4991 1.1459s1.4719.68723 1.9881.96275c.51614.27552 1.2315.61124 1.5896.74605 1.3995.52676 4.6564 2.5256 4.5992 2.8226-.06032.31321-.38574.23484-1.3074-.31486-.5069-.30233-1.5514-.85037-2.3211-1.2179-.76972-.3675-2.2767-1.0871-3.3488-1.5991-1.0721-.51201-2.4666-1.1419-3.0989-1.3998-.63227-.25788-1.2528-.53388-1.3789-.61334-.22962-.14464-1.0403-.50414-2.8196-1.2503-.76143-.31934-1.1405-.41556-1.9123-.48545-.52946-.04794-1.2263-.17617-1.5485-.28495-.32222-.10878-.60717-.17646-.63323-.1504-.1604.1604.31852.43869 1.3648.79302.65871.22308 1.3666.50531 1.5732.62718.6012.35472 2.4459 1.1711 4.6548 2.06 1.1271.45354 2.679 1.1182 3.4488 1.4769.76972.35877 2.2317 1.0201 3.2488 1.4697 2.4051 1.063 3.6401 1.7116 3.681 1.933.0329.17808-.41269.23804-.78205.10525zm-15.794-7.2373c-1.3182-.21615-1.5881-.20786-1.1496.03529.22644.12555.54474.16467 1.2995.15974.99964-.0065.99964-.0065-.14995-.19503zm1.4021-1.0368c-.27018-.32555-1.8628-1.0528-2.3056-1.0528-.39527 0-.18986.28591.32863.45743.28865.09548.81721.29992 1.1746.45429.75149.32462.98939.36645.80235.14108zm.39939-1.8485c-.18622-.34795-.89549-.81475-1.4337-.94356-.47462-.1136-.19698.18673.63547.68739.83465.50199.94949.53885.79821.25617zm14.986 7.939c-.28933-.19471-.77743-.56928-1.0847-.83238-.30723-.2631-.76103-.6168-1.0084-.78599-.24741-.1692-.71974-.59191-1.0496-.93937-1.2781-1.3462-2.2214-2.2654-2.749-2.6789-.30239-.23697-1.4068-1.2371-2.4543-2.2226-2.6722-2.514-3.2212-2.8372-5.2319-3.0796-3.648-.43982-1.8856-6.1875 1.9011-6.1999 1.2471-.0041 1.833.71445 2.0273 2.4861.18784 1.7132.35074 1.9668 3.1998 4.982 1.2691 1.3431 2.7619 2.9447 3.3173 3.5592.55544.61446 1.7819 1.8291 2.7254 2.6992 2.0032 1.8474 2.3664 2.3665 1.6557 2.3665-.44375 0-10.702-10.379-10.793-10.921-.03891-.23029-.17415-.58253-.30054-.78275-.31082-.49237-.48448-1.1439-.45744-1.716.02459-.52018-.23421-1.2273-.53987-1.4752-.16617-.13475-.17872-.13341-.12385.01325.64642 1.7278.63601 2.9929-.01403 1.7051-.32609-.64599-.99827-1.3185-1.3178-1.3185-.19542 0-.19019.02274.0862.37487 1.4529 1.851 1.9462 3.0063.7473 1.7501-.7161-.75029-1.7085-1.6252-1.8435-1.6252-.27468 0 .05966.4731 1.0686 1.5121.63227.65111 1.1496 1.252 1.1496 1.3353 0 .2867.02058.30057-1.8691-1.2596-.89224-.73665-1.1298-.86282-1.1298-.60005 0 .10731.04378.21011.0973.22844.15606.05345 2.2796 1.9201 2.3401 2.057.07175.16239-1.2942-.53124-2.1875-1.1108-.7344-.47647-.96902-.45296-.4882.04891.43949.45872 1.1296.86133 2.3072 1.346 1.4305.58879 2.2186 1.1393 3.7795 2.64.71503.68748 1.8621 1.7417 2.5491 2.3427.68697.60098 1.9013 1.7517 2.6985 2.5571.79721.80544 1.6734 1.6408 1.947 1.8562 1.0188.80229 1.7516 1.5565 1.7516 1.8028 0 .31639-.08458.30255-.7059-.11556zm-13.639-11.595c-.16494-.07553-.36737-.1357-.44984-.13371-.08247.0021-.015.0654.14995.14093.16494.07553.36737.13569.44984.13371.08247-.0021.015-.0654-.14995-.14093zm2.1409-3.4386c-.12563-.22354-.26671-.40643-.3135-.40643-.08586 0 .02894.2586.30093.67788.24684.3805.2569.16328.01257-.27145zm25.998 15.213c-.000793-.09622.39112-.53481.87051-.97465s1.6382-1.5685 2.5752-2.5082c1.7858-1.791 5.8518-5.5689 6.8219-6.3387.3118-.24741.92966-.79543 1.373-1.2178.44335-.42239 1.0304-.9622 1.3046-1.1996 1.2319-1.0665 1.384-1.2401 1.4134-1.6139.04497-.57111-.10978-.52681-.88571.25353-.39949.40176-1.1312 1.0139-1.626 1.3604-.49482.34643-1.2595.88038-1.6994 1.1866-.54939.38243-1.9762 1.7339-4.5584 4.3175-5.6265 5.6296-6.274 6.2092-6.489 5.8075-.1776-.33186.12563-.66416 2.2006-2.4116.35737-.30096 1.4739-1.4441 2.4812-2.5403 4.5324-4.9325 6.5579-6.7202 6.9307-6.117.14797.23941 1.7864-1.1847 2.4196-2.1031.70637-1.0245.53101-1.5366-.19535-.57052-.57248.76141-2.0497 2.4491-2.1436 2.4491-.04574 0 .22886-.5026.61023-1.1169.38137-.61429.6934-1.1521.6934-1.1952 0-.04306.13495-.30716.29989-.5869.31072-.52699.38556-.84493.18299-.7774-.0643.02143-.48755.6662-.94056 1.4328-1.0787 1.8255-1.28 2.109-1.6621 2.3414-.42442.25811-.43387.22567-.13863-.4758.15121-.35925.29523-.9746.35933-1.5353.17669-1.5454.42928-1.9969 1.3993-2.5012 2.343-1.2182 5.5135 1.9775 4.5598 4.596-.3843 1.0552-.87564 1.3592-2.4332 1.5058-1.5755.14824-2.4237.61598-4.1696 2.2995-1.757 1.6941-2.5263 2.3952-3.7549 3.4217-1.1013.92011-2.0052 1.8221-2.8348 2.8286-.8046.97617-2.9615 2.4195-2.9642 1.9835zm13.681-11.184c.67953-.19552 1.3149-.50436 1.3149-.63912 0-.13786-.0011-.13753-.97348.26179-1.2432.51058-1.3976.68121-.34144.37734zm-.59401-.30246c1.3227-.73243 2.0089-1.2216 2.0089-1.4322 0-.30557-.08878-.26622-1.366.60547-1.7452 1.191-2.0812 1.6232-.64287.82676zm1.4445-1.8809c.10196-.07724.16854-.19094.14797-.25268-.02117-.06342-.14196-.0011-.27778.14361-.25704.27361-.17661.34119.12981.10906zm-3.2841-1.139c.19825-.56976.34046-1.0559.316-1.0804-.16449-.16449-.85457 1.6008-.86444 2.2113-.0044.27115.22557-.20302.54843-1.1309zm-23.875 12.484c-.13791-.1639-.44242-.64748-.67668-1.0746-.69804-1.2728-2.0133-3.3116-3.3666-5.2186-.69945-.98564-1.6766-2.3824-2.1714-3.104-.49482-.72154-1.2028-1.7255-1.5732-2.231-.682-.93076-.84636-1.4099-.52584-1.5329.35824-.13747.61173.07993 1.2677 1.0872.36747.56428 1.2533 1.8807 1.9685 2.9253 4.2306 6.1792 5.9244 8.9052 5.7751 9.2943-.09412.24528-.42704.17573-.69754-.14573zm10.729-.0515c0-.29547 1.2798-2.8038 1.7598-3.4491 1.0096-1.3573 1.9052-2.643 3.6907-5.2981 3.0855-4.5884 3.2269-4.7537 3.6403-4.2557.15702.1892.05654.36778-1.1851 2.1064-.54971.76972-1.4093 1.9993-1.9102 2.7324s-1.4105 2.0151-2.0213 2.849c-1.7475 2.3856-1.9765 2.7292-2.5903 3.8865-.84099 1.5855-1.3839 2.1459-1.3839 1.4286zm5.598-.0093c0-.08716.3588-.3742 1.1996-.9597 1.7396-1.2114 3.4125-2.5206 4.3383-3.3949 1.5309-1.4458 2.652-2.284 3.0551-2.284.29225 0-.02058.39518-1.276 1.6117-.75895.73548-1.508 1.5079-1.6646 1.7164-.25833.34411-3.2951 2.4759-4.1767 2.932-.48934.25316-1.4757.50617-1.4757.37852zm-15.579-1.4599c-.62104-1.1629-1.071-1.8841-3.7838-6.0637-1.5666-2.4138-1.8725-2.9025-4.1661-6.6566-1.4914-2.4411-3.0035-4.2329-1.8439-2.185.77445 1.3677.78641 1.4554.11443.83874-.32045-.29405-.70541-.67221-.85547-.84036s-.30261-.27595-.339-.23955c-.0953.0953.56803.86893 1.0468 1.2208.22438.16494.42966.35372.45616.41952.0265.06579-.26927-.112-.65728-.3951s-.72787-.5731-.75524-.64444c-.06568-.17116-.22831-.16674-.22831.0062 0 .23743.67128.80321 1.3212 1.1136.7586.36228.89655.65044.31051.64862-2.623-.0081-3.7121-2.5366-1.8264-4.2401 2.0774-1.8768 5.1053-.82896 4.5439 1.5725-.44383 1.8985-.47943 1.9261-1.1789.91277-.62867-.91081-1.4011-1.8023-1.4456-1.6686-.07839.23518 1.1067 1.9533 1.7626 2.5553.23116.21218.57342.69818.77437 1.0996.34916.69749 2.7926 4.8095 3.3382 5.6176.14846.21992.69749 1.0971 1.2201 1.9493.52258.85219 1.2822 2.0473 1.6881 2.6559 1.0306 1.5451 1.7635 2.9991 1.624 3.2217-.27997.4467-.49298.27581-1.1202-.89873zm-7.1551-14.141c-.03488-.09091-.085-.43953-.11138-.77472-.06213-.78971-.14134-1.1592-.24849-1.1592-.18633 0-.19855.21686-.04248.75372.08964.30835.14275.58087.11802.6056-.04701.04701-.4134-.91235-.52711-1.3802-.06975-.28697-.31011-.54824-.41129-.44706-.0783.0783.53607 1.6032.76309 1.8941.09585.1228.20599.32448.24475.44819s.11724.22492.17439.22492c.05716 0 .07538-.07438.04049-.16529zm15.971 15.105c-.2234-.58218.62341-2.4494 1.6035-3.5356.37667-.41748.91432-1.1818 1.2306-1.7494.30892-.55439.95306-1.6153 1.4314-2.3575.47836-.74223.95029-1.507 1.0487-1.6994.09844-.19243.71952-1.2496 1.3802-2.3492 1.7697-2.9455 1.6906-2.6575 1.2541-4.5645-.73414-3.2078 3.8037-3.8681 5.215-.75884.79446 1.7502-1.2494 3.7543-3.2752 3.2114-.26628-.07137-.14696-.27919.69422-1.2092.65735-.72672 1.1744-1.8506.78684-1.7104-.11451.04143-1.1913 1.4273-1.7346 2.2325-.22258.32988-.57056.78256-.77328 1.0059s-.49481.62824-.64909.89968c-.15428.27143-.47959.8084-.7229 1.1933-.24332.38486-.94788 1.5095-1.5657 2.4991-1.5218 2.4377-2.7991 4.3851-3.311 5.0482-.47502.61531-1.4585 2.2976-1.9432 3.3238-.31016.65674-.54677.84048-.66974.52005zm10.893-14.309c.51722-.26322 1.2681-1.07 1.2681-1.3625 0-.35029-.10363-.33875-.34988.03896-.10996.16867-.47432.52691-.8097.79609-1.0088.80968-1.0492 1.0062-.10851.5275zm-2.083-1.131c.10143-.24741.33838-.80121.52657-1.2307.44786-1.022.35848-1.374-.13174-.51872-.35934.62691-.60548 1.3224-.70761 1.9993-.07318.48503.05275.38442.31278-.24991zm.85768-.01907c.76534-.96822 1.2877-2.4157.60457-1.6754-.24058.26074-1.21 1.9485-1.21 2.1067 0 .21044.22471.05036.60544-.4313zm-25.614 15.174c-.36881-.13172-.48193-.19442-1.6872-.93511-.36014-.22133-1.0574-.60535-1.5494-.85338-.49205-.24803-1.2095-.63581-1.5944-.86172-.38486-.22592-1.0352-.55042-1.4451-.72112-2.1578-.89851-3.0977-2.0014-2.3462-2.753.48367-.48367 1.4704-.08401 1.2465.50487-.05736.15087-.10412.39508-.10391.5427.000768.53237 1.6933 1.582 1.9143 1.1871.25076-.44807.42885-.39761 1.3342.37807.47764.40921 1.1229.88657 1.4338 1.0608 1.5976.89513 3.7535 2.6163 3.2394 2.5863-.04124-.0024-.24018-.06339-.4421-.13551zm8.6347-1.2846c-.21675-.56355-.6089-1.7219-.87143-2.5741-.5828-1.8918-.88456-2.7103-1.2161-3.2988-1.0348-1.8368-3.341-7.7024-3.2522-8.272.13515-.86778.66981-.27103 1.2315 1.3745.25335.74223.71967 2.0468 1.0363 2.899s.70299 1.9177.85865 2.3679c.41979 1.2139 1.0001 2.2202.99068 1.7179-.0058-.31096-1.105-4.7018-1.3481-5.3853-.08801-.24741-.24313-.78722-.3447-1.1996-.10158-.41235-.29726-1.1775-.43484-1.7003-.13758-.52281-.34278-1.4675-.45599-2.0992-.21107-1.1779-.5972-2.3098-.81244-2.3815-.07787-.02596-.10058.02626-.06367.14642.03155.10272.15013.59162.2635 1.0864.11337.49482.23017.97812.25954 1.074.13584.44327-.2702.0087-.45609-.48809-.27417-.73279-.55509-1.2712-.74581-1.4295-.29805-.24736-.17762.25876.26669 1.1208.23317.45237.44083.86747.46147.92245s-.30651-.23741-.72699-.64977c-.6784-.66528-.75196-.7136-.65304-.42893.10486.30176.54391.75003 1.1345 1.1583.63526.43919.26839.68856-.49204.33445-2.7701-1.29-1.5371-4.7035 1.7015-4.7104 2.1561-.0046 2.9046 1.2022 2.0135 3.2467-.71613 1.6431-.86414 1.6676-.73156.12091.07108-.82921.06529-1.2336-.02183-1.5245-.18806-.62769-.30977-.46418-.31925.42889-.0048.45359-.04034 1.0496-.07894 1.3245-.08339.59395-.1252.50662-.39906-.83358-.17997-.88072-.33113-1.2308-.471-1.091-.08939.0894.41847 2.0375.64395 2.4701.10556.20253.31431.88238.46388 1.5108.14957.6284.42235 1.7506.60618 2.4938.18383.74321.45187 1.9128.59565 2.5991.14378.68628.37238 1.6301.508 2.0975.2252.77598.23625.9027.1274 1.4607-.14113.72354-.08204 1.0103.78036 3.7874.92256 2.9708.9837 3.3488.54171 3.3488-.15588 0-.27579-.20832-.58976-1.0246zm6.014.7576c-.05865-.23369 1.4288-5.8107 1.7951-6.7305.05474-.13745.08804-.31739.07401-.39986-.01556-.09152.05609-.05635.1839.09027.11517.13212.2094.30081.2094.37487 0 .63969.49541-.31933.83413-1.6147.51618-1.9741 2.1347-6.5502 2.4201-6.8424.70511-.72192.75968.0828.12506 1.8442-1.4068 3.9045-2.0691 5.4796-2.6274 6.2478-.50394.69343-.69068 1.1322-1.1487 2.699-1.3436 4.5963-1.6314 5.2645-1.8656 4.3313zm-4.3794-.16103c-.31235-.479-1.2844-4.5029-1.5025-6.2196-.08381-.65976-.26201-1.8968-.39599-2.749-.13399-.8522-.29208-1.8643-.35132-2.2492-.45321-2.9445-.62164-3.9411-.71355-4.2219-.27923-.85327.73707-1.784 1.2971-1.1879.40877.43512.23966 1.1614-.27044 1.1614-.10543 0-.12773.07804-.08431.29513.08226.41132.4927 3.2691.91234 6.3525.46899 3.446.5758 4.0386 1.1621 6.4477.27432 1.1271.47481 2.1455.44554 2.2632-.07809.31386-.32926.3681-.49901.10778zm3.1098.06153c-.10109-.1011-.07966-.86546.03344-1.193.58424-1.6916 1.061-4.425 1.6523-9.472.25026-2.1362.51818-4.0674.59539-4.2915.13731-.39854.13379-.4149-.1618-.75156-.34176-.38925-.33219-.73901.02856-1.0443.59478-.50329 1.4159.18984 1.1875 1.0023-.1182.42034-.65218 3.6553-.75446 4.5707-.03688.32988-.12715 1.0046-.20066 1.4995-.0735.49482-.16173 1.2371-.19606 1.6494-.28802 3.4594-1.6709 8.5437-2.1842 8.0305zm6.0887-.15696c.13122-.41344.28761-.62994 3.3407-4.6247.46222-.60478 1.09-1.4084 1.3952-1.7858.30512-.37743.64473-.80697.7547-.95454.10996-.14757.56334-.71595 1.0075-1.2631 1.0051-1.2381 1.1238-1.4259 1.1199-1.7728-.0068-.60011.73975-.91479 1.0658-.44927.25647.36616.18415.6039-.43636 1.4345-.8612 1.1528-3.3278 4.109-5.2069 6.2405-.36353.41235-.87867 1.0421-1.1448 1.3995-.91201 1.2249-2.0631 2.3031-1.8957 1.7757zm-7.6522-.12315c-.08455-.10188-.11412-.52267-.0966-1.3745.15196-7.3852-.13434-16.072-.57831-17.547-.61549-2.0449-.84059-1.9959-.31623.06881.19724.77664.25903 2.1468.09421 2.0888-4.0492-1.4257-1.3178-6.4074 2.778-5.0666 2.1225.69479 2.2766 2.5552.36246 4.3735-1.0559 1.003-1.2684.85947-.59761-.40376.63309-1.1923 1.0339-2.4851.77037-2.4851-.04412 0-.16212.23617-.26222.52481-.50834 1.4658-1.1592 2.7319-1.1563 2.2492.0024-.35295.2231-1.4275.3038-1.4774.09995-.06177.29523-.96702.29523-1.3686 0-.50419-.25068-.15463-.30808.42961-.0551.56073-.05906.56793-.07497.13628-.03665-.99338-.28558-.91798-.36794.11144-.20074 2.5089-.31638 13.997-.15964 15.86.22434 2.6664-.11256 4.5714-.68622 3.8801zm-1.2168-18.031c-.70777-1.626-.87834-1.9157-.88192-1.4981-.0024.25178.17601.72097.56938 1.4995.63872 1.264.86292 1.263.31254-.0014zm1.227-1.0188c-.0043-.93949-.04658-1.4658-.12537-1.5607-.24087-.29024-.29672.03955-.19046 1.1247.23386 2.3882.32534 2.5145.31582.43598zm2.2526 1.2285c.31114-.39377.53326-.93879.52799-1.2956-.0052-.34977-.02694-.31976-.28362.39102-.15291.42342-.33584.83952-.40651.92467-.07066.08514-.09419.1548-.05228.1548s.13839-.07872.21442-.17494zm-1.4672-2.605c.000794-.12871-.04269-.20349-.09843-.16904-.05498.03398-.09927.20532-.09844.38076.0011.24272.02471.28313.09844.16904.05329-.08247.09759-.25382.09843-.38076zm-8.7211 19.842c-.70069-.61102-1.3765-1.3572-2.5519-2.8175-.30977-.38486-.9713-1.1721-1.4701-1.7494s-1.1062-1.297-1.3499-1.5994c-.24368-.30239-.74126-.88718-1.1057-1.2995-.36447-.41235-.74846-.88304-.85331-1.046-.10485-.16293-.28683-.40024-.4044-.52736-.62432-.67506-.01008-1.759.72416-1.2779.19875.13022.23932.24015.23932.64833 0 .46389.04268.54382.75931 1.4222.41762.51186.96867 1.1965 1.2246 1.5214.25589.3249.7683.94373 1.1387 1.3752.65976.76853 2.1556 2.743 3.1302 4.1319.27007.38486.68307.93766.91779 1.2284.68451.84804.58263.84538-.39875-.0104zm26.266-1.8449c.1744-.17367 1.1815-.96604 1.6769-1.3193.47728-.3404.47728-.3404.06724-.7582-.45221-.46076-.32617-.73368.41389-.89622 1.0949-.24048 1.0653 1.1586-.04462 2.1087-.43294.37058-2.4431 1.1934-2.1134.86507zm-13.073-.5477c.0692-.55535.54042-1.7568 1.0311-2.6288.691-1.2281 1.4839-2.8127 1.8498-3.6966.19588-.47319.69469-1.5621 1.1085-2.4197.75233-1.5594.75233-1.5594.58484-1.9308-.39536-.87675.80135-1.5268 1.2148-.65986.23584.49456-1.6053 4.5356-3.5056 7.6942-.40286.66963-.93627 1.6348-1.1853 2.1449-.40558.83052-1.042 1.9216-1.1209 1.9216-.01651 0-.0062-.19118.02289-.42485zm-6.3449-.41656c-.31404-.9412-.78451-5.2673-.97342-8.9507-.2043-3.9836-.21541-3.703.14657-3.703.54329 0 .57333.14994.70079 3.4987.06383 1.6769.15993 3.5437.21357 4.1485.10752 1.2125.23418 5.1864.17497 5.4896-.02267.11608-.12604-.07416-.26248-.48309zm-4.183-.05963c-1.294-2.06-3.0389-5.2294-4.5498-8.2643-.97156-1.9515-.84526-3.428.2486-2.9064.49175.2345.57617.59598.22483.9627-.36289.37878-.49733.03845 1.9773 5.0054 1.2318 2.4725 2.3149 4.7217 2.4067 4.9983.27945.84135.14755.92894-.30766.20429zm6.6246-.37351c-.139-.23442-.16314-1.2923-.06673-2.924.0601-1.0171.19194-3.4013.29298-5.2981.19848-3.7261.19713-3.7168.56634-3.8851.51796-.236.57106-.17706.50568.56125-.03287.37112-.10922 1.462-.16967 2.4241-.4317 6.871-.78242 9.7056-1.1286 9.1217zm3.2777-4.1985c.11912-1.491.93271-5.2759 1.5955-7.4223.16724-.54162.2503-1.1243.29923-2.0992.03725-.74223.09298-1.4507.12385-1.5744s.01349-.22492-.03863-.22492c-.20792 0-.35782.60286-.40392 1.6244-.05812 1.2878-.07776 1.2956-.67153.26622-1.1039-1.9139-.15153-3.4313 2.1482-3.4227 3.2841.01236 4.2383 3.704 1.2467 4.8233-.76862.28758-.80844.26674-.41539-.21738.61382-.75606 1.2184-2.1694.98868-2.3114-.05004-.03093-.4011.56083-.78013 1.315-.37903.75418-.7006 1.39-.71458 1.4129-.01397.02291-.05687.01022-.09529-.0282-.07227-.07227-.0145-.33464.43803-1.99.20183-.73828.23889-1.0051.15169-1.0923-.173-.173-.57618.81576-.9864 2.4191-.18991.74223-.41229 1.5306-.49417 1.7519-.1908.51567-.70443 2.4474-1.3416 5.0457-.71326 2.9086-1.21 3.7243-1.0503 1.7244zm2.4529-8.8471c0-.01387.11193-.47496.24873-1.0246.31536-1.2671.32994-1.6017.05548-1.2727-.3317.3977-.66666 2.3225-.40417 2.3225.05498 0 .09996-.01135.09996-.02522zm-1.1303-1.4473c-.02535-.09726-.04775-.04189-.04978.12305-.0019.16494.01871.24452.04608.17684.02739-.06768.02905-.20263.0038-.29989z"
          fill="#fff" stroke-width=".37782" transform="translate(-29.244 -58.775)"/>
</svg>